<svg id="Layer_1" data-name="Layer 1" xmlns="http://www.w3.org/2000/svg" viewBox="0 0 165 20"><defs><style>.cls-1{fill:none;}.cls-1,.cls-3{stroke:#1d1d1b;stroke-miterlimit:10;}.cls-2{fill:#1d1d1b;}.cls-3{fill:#fff;}</style></defs><title>delete1</title><rect class="cls-1" x="26.01" y="1.67" width="30" height="16.67"/><line class="cls-1" x1="41.01" y1="1.67" x2="41.01" y2="18.33"/><path class="cls-2" d="M29.29,10.1c0-2,1.17-3.25,2.85-3.25a2.75,2.75,0,0,1,2.74,3v.46H30.3v.29a1.79,1.79,0,0,0,1.9,1.88A1.88,1.88,0,0,0,34,11.42l.71.48a2.59,2.59,0,0,1-2.48,1.43C30.42,13.33,29.29,12.06,29.29,10.1Zm1-.57v.08h3.55V9.48a1.69,1.69,0,0,0-1.71-1.84A1.82,1.82,0,0,0,30.3,9.53Z"/><circle class="cls-2" cx="48.51" cy="10" r="2.5"/><line class="cls-1" x1="20.87" y1="10" x2="1.96" y2="10"/><polygon class="cls-2" points="17.56 5.91 16.88 6.64 20.49 10 16.88 13.36 17.56 14.09 21.96 10 17.56 5.91"/><rect class="cls-3" x="72.56" y="1.67" width="30" height="16.67"/><line class="cls-1" x1="87.56" y1="1.67" x2="87.56" y2="18.33"/><circle class="cls-2" cx="95.06" cy="10" r="2.5"/><line class="cls-1" x1="67.42" y1="10" x2="48.51" y2="10"/><polygon class="cls-2" points="64.11 5.91 63.43 6.64 67.04 10 63.43 13.36 64.11 14.09 68.51 10 64.11 5.91"/><line class="cls-1" x1="113.97" y1="10" x2="95.06" y2="10"/><polygon class="cls-2" points="110.66 5.91 109.98 6.64 113.59 10 109.98 13.36 110.66 14.09 115.06 10 110.66 5.91"/><path class="cls-2" d="M35.85,14.46v-.53h1V11.44h0l-.76.91L35.6,12l.86-1h1v3h.79v.53Z"/><path class="cls-2" d="M75.84,10.1c0-2,1.17-3.25,2.85-3.25a2.75,2.75,0,0,1,2.74,3v.46H76.85v.29a1.79,1.79,0,0,0,1.9,1.88,1.88,1.88,0,0,0,1.77-1.08l.71.48a2.59,2.59,0,0,1-2.48,1.43C77,13.33,75.84,12.06,75.84,10.1Zm1-.57v.08H80.4V9.48a1.69,1.69,0,0,0-1.71-1.84A1.82,1.82,0,0,0,76.85,9.53Z"/><path class="cls-2" d="M84.7,14.46H82.24v-.61l1.12-.95c.37-.32.55-.57.55-.86v0a.47.47,0,0,0-.53-.51.62.62,0,0,0-.63.52l-.57-.22a1.22,1.22,0,0,1,1.25-.87,1,1,0,0,1,1.18,1c0,.57-.39.94-.9,1.35l-.76.61H84.7Z"/><rect class="cls-3" x="119.11" y="1.67" width="30" height="16.67"/><line class="cls-1" x1="134.11" y1="1.67" x2="134.11" y2="18.33"/><circle class="cls-2" cx="141.61" cy="10" r="2.5"/><line class="cls-1" x1="160.52" y1="10" x2="141.61" y2="10"/><polygon class="cls-2" points="157.21 5.91 156.53 6.64 160.14 10 156.53 13.36 157.21 14.09 161.61 10 157.21 5.91"/><path class="cls-2" d="M122.4,10.1c0-2,1.16-3.25,2.84-3.25a2.75,2.75,0,0,1,2.74,3v.46H123.4v.29a1.79,1.79,0,0,0,1.9,1.88,1.88,1.88,0,0,0,1.77-1.08l.71.48a2.59,2.59,0,0,1-2.48,1.43C123.52,13.33,122.4,12.06,122.4,10.1Zm1-.57v.08H127V9.48a1.69,1.69,0,0,0-1.71-1.84A1.82,1.82,0,0,0,123.4,9.53Z"/><path class="cls-2" d="M129.86,12.38c.42,0,.61-.19.61-.44v0c0-.29-.21-.46-.54-.46a.84.84,0,0,0-.73.42l-.42-.38a1.34,1.34,0,0,1,1.18-.58c.71,0,1.2.35,1.2.91a.8.8,0,0,1-.68.8v0a.84.84,0,0,1,.74.86c0,.61-.52,1-1.32,1a1.4,1.4,0,0,1-1.25-.64l.49-.38a.82.82,0,0,0,.77.48c.4,0,.63-.19.63-.52v0c0-.32-.25-.49-.68-.49h-.35v-.55Z"/></svg>