<svg id="Layer_1" data-name="Layer 1" xmlns="http://www.w3.org/2000/svg" viewBox="0 0 165 25"><defs><style>.cls-1{fill:#fff;}.cls-1,.cls-2{stroke:#1d1d1b;}.cls-1,.cls-2,.cls-4{stroke-miterlimit:10;}.cls-2,.cls-4{fill:none;}.cls-3{fill:#1d1d1b;}.cls-4{stroke:#f08262;stroke-dasharray:4 2;}.cls-5{fill:#f08262;}</style></defs><title>delete2</title><rect class="cls-1" x="26.01" y="6.24" width="30" height="16.67"/><line class="cls-2" x1="41.01" y1="6.24" x2="41.01" y2="22.9"/><path class="cls-3" d="M29.29,14.67c0-2,1.17-3.25,2.85-3.25a2.75,2.75,0,0,1,2.74,3v.46H30.3v.29a1.79,1.79,0,0,0,1.9,1.88A1.88,1.88,0,0,0,34,16l.71.48A2.59,2.59,0,0,1,32.2,17.9C30.42,17.9,29.29,16.63,29.29,14.67Zm1-.57v.08h3.55v-.13a1.69,1.69,0,0,0-1.71-1.84A1.82,1.82,0,0,0,30.3,14.1Z"/><line class="cls-2" x1="20.87" y1="14.57" x2="1.96" y2="14.57"/><polygon class="cls-3" points="17.56 10.48 16.88 11.21 20.49 14.57 16.88 17.93 17.56 18.66 21.96 14.57 17.56 10.48"/><rect class="cls-1" x="72.56" y="6.24" width="30" height="16.67"/><line class="cls-2" x1="87.56" y1="6.24" x2="87.56" y2="22.9"/><circle class="cls-3" cx="95.06" cy="14.57" r="2.5"/><path class="cls-2" d="M113.39,5.81C110.14,4.52,99.05.77,82,2c-24.49,1.72-33.44,12.6-33.44,12.6"/><polygon class="cls-3" points="111.69 0.87 110.79 1.32 113.01 5.72 108.45 7.61 108.84 8.54 114.39 6.24 111.69 0.87"/><line class="cls-2" x1="113.97" y1="14.57" x2="95.06" y2="14.57"/><polygon class="cls-3" points="110.66 10.48 109.98 11.21 113.59 14.57 109.98 17.93 110.66 18.66 115.06 14.57 110.66 10.48"/><path class="cls-3" d="M35.85,19V18.5h1V16h0l-.76.91-.41-.35.86-1h1v3h.79V19Z"/><path class="cls-3" d="M75.84,14.67c0-2,1.17-3.25,2.85-3.25a2.75,2.75,0,0,1,2.74,3v.46H76.85v.29a1.79,1.79,0,0,0,1.9,1.88A1.88,1.88,0,0,0,80.52,16l.71.48a2.59,2.59,0,0,1-2.48,1.43C77,17.9,75.84,16.63,75.84,14.67Zm1-.57v.08H80.4v-.13a1.69,1.69,0,0,0-1.71-1.84A1.82,1.82,0,0,0,76.85,14.1Z"/><path class="cls-3" d="M84.7,19H82.24v-.61l1.12-1c.37-.32.55-.57.55-.86v-.05a.48.48,0,0,0-.53-.52.62.62,0,0,0-.63.53l-.57-.22a1.22,1.22,0,0,1,1.25-.87,1,1,0,0,1,1.18,1c0,.58-.39.95-.9,1.36l-.76.61H84.7Z"/><rect class="cls-1" x="119.11" y="6.24" width="30" height="16.67"/><line class="cls-2" x1="134.11" y1="6.24" x2="134.11" y2="22.9"/><circle class="cls-3" cx="141.61" cy="14.57" r="2.5"/><line class="cls-2" x1="160.52" y1="14.57" x2="141.61" y2="14.57"/><polygon class="cls-3" points="157.21 10.48 156.53 11.21 160.14 14.57 156.53 17.93 157.21 18.66 161.61 14.57 157.21 10.48"/><path class="cls-3" d="M122.4,14.67c0-2,1.16-3.25,2.84-3.25a2.75,2.75,0,0,1,2.74,3v.46H123.4v.29a1.79,1.79,0,0,0,1.9,1.88A1.88,1.88,0,0,0,127.07,16l.71.48a2.59,2.59,0,0,1-2.48,1.43C123.52,17.9,122.4,16.63,122.4,14.67Zm1-.57v.08H127v-.13a1.69,1.69,0,0,0-1.71-1.84A1.82,1.82,0,0,0,123.4,14.1Z"/><path class="cls-3" d="M129.86,17c.42,0,.61-.19.61-.44v0c0-.28-.21-.45-.54-.45a.84.84,0,0,0-.73.42l-.42-.38a1.34,1.34,0,0,1,1.18-.58c.71,0,1.2.35,1.2.91a.8.8,0,0,1-.68.8v0a.84.84,0,0,1,.74.86c0,.61-.52,1-1.32,1a1.4,1.4,0,0,1-1.25-.64l.49-.38a.82.82,0,0,0,.77.48c.4,0,.63-.19.63-.52v0c0-.32-.25-.49-.68-.49h-.35V17Z"/><line class="cls-4" x1="67.42" y1="14.57" x2="48.51" y2="14.57"/><polygon class="cls-5" points="64.11 10.48 63.43 11.21 67.04 14.57 63.43 17.93 64.11 18.66 68.51 14.57 64.11 10.48"/><circle class="cls-3" cx="48.51" cy="14.57" r="2.5"/></svg>