<svg id="Layer_1" data-name="Layer 1" xmlns="http://www.w3.org/2000/svg" viewBox="0 0 120 20"><defs><style>.cls-1{fill:none;}.cls-1,.cls-3{stroke:#1d1d1b;stroke-miterlimit:10;}.cls-2{fill:#1d1d1b;}.cls-3{fill:#fff;}</style></defs><title>insert1</title><rect class="cls-1" x="28.11" y="1.67" width="30" height="16.67"/><line class="cls-1" x1="43.11" y1="1.67" x2="43.11" y2="18.33"/><path class="cls-2" d="M31.4,10.1c0-2,1.16-3.25,2.84-3.25a2.76,2.76,0,0,1,2.75,3v.46H32.4v.29a1.8,1.8,0,0,0,1.9,1.88,1.87,1.87,0,0,0,1.77-1.08l.71.48a2.59,2.59,0,0,1-2.48,1.43C32.52,13.33,31.4,12.06,31.4,10.1Zm1-.57v.08H36V9.48a1.69,1.69,0,0,0-1.71-1.84A1.82,1.82,0,0,0,32.4,9.53Z"/><circle class="cls-2" cx="50.61" cy="10" r="2.5"/><line class="cls-1" x1="22.98" y1="10" x2="4.06" y2="10"/><polygon class="cls-2" points="19.66 5.91 18.98 6.64 22.59 10 18.98 13.36 19.66 14.09 24.06 10 19.66 5.91"/><rect class="cls-3" x="74.66" y="1.67" width="30" height="16.67"/><line class="cls-1" x1="89.66" y1="1.67" x2="89.66" y2="18.33"/><circle class="cls-2" cx="97.16" cy="10" r="2.5"/><line class="cls-1" x1="69.53" y1="10" x2="50.61" y2="10"/><polygon class="cls-2" points="66.21 5.91 65.53 6.64 69.14 10 65.53 13.36 66.21 14.09 70.61 10 66.21 5.91"/><line class="cls-1" x1="116.08" y1="10" x2="97.16" y2="10"/><polygon class="cls-2" points="112.76 5.91 112.08 6.64 115.69 10 112.08 13.36 112.76 14.09 117.16 10 112.76 5.91"/><path class="cls-2" d="M38,14.46v-.53h1V11.44h-.05l-.76.91L37.7,12l.87-1h1v3h.79v.53Z"/><path class="cls-2" d="M78,10.1c0-2,1.16-3.25,2.84-3.25a2.76,2.76,0,0,1,2.75,3v.46H79v.29a1.8,1.8,0,0,0,1.9,1.88,1.87,1.87,0,0,0,1.77-1.08l.71.48a2.59,2.59,0,0,1-2.48,1.43C79.07,13.33,78,12.06,78,10.1Zm1-.57v.08H82.5V9.48a1.69,1.69,0,0,0-1.71-1.84A1.82,1.82,0,0,0,79,9.53Z"/><path class="cls-2" d="M86.8,14.46H84.34v-.61l1.12-.95c.37-.32.55-.57.55-.86v0a.47.47,0,0,0-.53-.51.64.64,0,0,0-.63.52l-.57-.22a1.23,1.23,0,0,1,1.26-.87,1,1,0,0,1,1.17,1c0,.57-.39.94-.89,1.35l-.76.61H86.8Z"/></svg>