<svg id="Layer_1" data-name="Layer 1" xmlns="http://www.w3.org/2000/svg" viewBox="0 0 120 50"><defs><style>.cls-1,.cls-4,.cls-5{fill:none;}.cls-1,.cls-3{stroke:#1d1d1b;}.cls-1,.cls-3,.cls-4,.cls-5{stroke-miterlimit:10;}.cls-2{fill:#1d1d1b;}.cls-3{fill:#fff;}.cls-4,.cls-5{stroke:#f08262;}.cls-5{stroke-dasharray:4.26 2.13;}.cls-6{fill:#f08262;}</style></defs><title>insert2</title><line class="cls-1" x1="43.11" y1="30.84" x2="43.11" y2="47.51"/><line class="cls-1" x1="22.98" y1="39.17" x2="4.06" y2="39.17"/><polygon class="cls-2" points="19.66 35.08 18.98 35.82 22.59 39.17 18.98 42.53 19.66 43.26 24.06 39.17 19.66 35.08"/><rect class="cls-3" x="74.66" y="30.84" width="30" height="16.67"/><line class="cls-1" x1="89.66" y1="30.84" x2="89.66" y2="47.51"/><circle class="cls-2" cx="97.16" cy="39.17" r="2.5"/><line class="cls-4" x1="69.53" y1="39.17" x2="67.53" y2="39.17"/><line class="cls-5" x1="65.39" y1="39.17" x2="53.68" y2="39.17"/><line class="cls-4" x1="52.61" y1="39.17" x2="50.61" y2="39.17"/><polygon class="cls-6" points="66.21 35.08 65.53 35.82 69.14 39.17 65.53 42.53 66.21 43.26 70.61 39.17 66.21 35.08"/><line class="cls-1" x1="116.08" y1="39.17" x2="97.16" y2="39.17"/><polygon class="cls-2" points="112.76 35.08 112.08 35.82 115.69 39.17 112.08 42.53 112.76 43.26 117.16 39.17 112.76 35.08"/><rect class="cls-3" x="52.2" y="2.49" width="30" height="16.67"/><line class="cls-1" x1="67.2" y1="2.49" x2="67.2" y2="19.16"/><line class="cls-1" x1="81.76" y1="26.48" x2="74.7" y2="10.83"/><polygon class="cls-2" points="84.13 21.77 83.18 21.45 81.6 26.13 77.06 24.21 76.67 25.14 82.21 27.46 84.13 21.77"/><line class="cls-1" x1="50.61" y1="39.17" x2="57.66" y2="23.52"/><polygon class="cls-2" points="60.03 28.23 59.08 28.55 57.51 23.88 52.96 25.79 52.58 24.86 58.11 22.54 60.03 28.23"/><circle class="cls-2" cx="50.61" cy="39.17" r="2.5"/><circle class="cls-2" cx="74.7" cy="10.83" r="2.5"/><rect class="cls-1" x="28.11" y="30.84" width="30" height="16.67"/><path class="cls-2" d="M31.4,39.27c0-2,1.16-3.25,2.84-3.25a2.76,2.76,0,0,1,2.75,3v.45H32.4v.29a1.8,1.8,0,0,0,1.9,1.88,1.85,1.85,0,0,0,1.77-1.08l.71.48A2.59,2.59,0,0,1,34.3,42.5C32.52,42.5,31.4,41.23,31.4,39.27Zm1-.57v.08H36v-.13a1.68,1.68,0,0,0-1.71-1.83A1.81,1.81,0,0,0,32.4,38.7Z"/><path class="cls-2" d="M38,43.64V43.1h1V40.62h-.05l-.76.9-.41-.35.87-1h1v3h.79v.54Z"/><path class="cls-2" d="M78,39.27c0-2,1.16-3.25,2.84-3.25a2.76,2.76,0,0,1,2.75,3v.45H79v.29a1.8,1.8,0,0,0,1.9,1.88,1.85,1.85,0,0,0,1.77-1.08l.71.48a2.59,2.59,0,0,1-2.48,1.43C79.07,42.5,78,41.23,78,39.27Zm1-.57v.08H82.5v-.13a1.68,1.68,0,0,0-1.71-1.83A1.81,1.81,0,0,0,79,38.7Z"/><path class="cls-2" d="M86.8,43.64H84.34V43l1.12-1c.37-.32.55-.57.55-.86v-.05a.47.47,0,0,0-.53-.51.64.64,0,0,0-.63.52L84.28,41a1.23,1.23,0,0,1,1.26-.87,1,1,0,0,1,1.17,1c0,.57-.39.94-.89,1.35l-.76.61H86.8Z"/><path class="cls-2" d="M55.49,10.93c0-2,1.16-3.25,2.84-3.25a2.76,2.76,0,0,1,2.75,3v.46H56.5v.28a1.79,1.79,0,0,0,1.89,1.89,1.89,1.89,0,0,0,1.78-1.08l.71.48a2.6,2.6,0,0,1-2.49,1.42C56.62,14.15,55.49,12.88,55.49,10.93Zm1-.58v.09h3.55V10.3a1.69,1.69,0,0,0-1.72-1.83A1.81,1.81,0,0,0,56.5,10.35Z"/><path class="cls-2" d="M62,15.29V12.71h.64v.45h0a.75.75,0,0,1,.75-.51.85.85,0,0,1,.86,1v1.67h-.64V13.71c0-.37-.17-.56-.49-.56s-.51.14-.51.41v1.73Z"/></svg>