<svg id="Layer_1" data-name="Layer 1" xmlns="http://www.w3.org/2000/svg" viewBox="0 0 70 30"><defs><style>.cls-1{fill:#fff;}.cls-1,.cls-2{stroke:#1d1d1b;stroke-miterlimit:10;}.cls-2{fill:none;}.cls-3{fill:#1d1d1b;}</style></defs><title>newCList</title><rect class="cls-1" x="28.31" y="10.31" width="30" height="16.67"/><line class="cls-2" x1="43.31" y1="10.31" x2="43.31" y2="26.98"/><path class="cls-3" d="M33,18.75c0-2,1.16-3.25,2.84-3.25a2.76,2.76,0,0,1,2.75,3V19H34v.29a1.79,1.79,0,0,0,1.89,1.89,1.89,1.89,0,0,0,1.78-1.08l.71.48A2.61,2.61,0,0,1,35.91,22C34.14,22,33,20.7,33,18.75Zm1-.58v.08h3.55v-.13a1.69,1.69,0,0,0-1.72-1.83A1.81,1.81,0,0,0,34,18.17Z"/><polyline class="cls-2" points="50.81 18.64 67.75 18.64 67.75 3.61 17.08 3.61 17.08 13.72 23.17 13.72"/><polygon class="cls-3" points="19.86 17.81 19.18 17.07 22.79 13.72 19.18 10.36 19.86 9.63 24.26 13.72 19.86 17.81"/><circle class="cls-3" cx="50.81" cy="18.64" r="2.5"/><line class="cls-2" x1="23.17" y1="22.44" x2="4.26" y2="22.44"/><polygon class="cls-3" points="19.86 18.35 19.18 19.09 22.79 22.44 19.18 25.8 19.86 26.53 24.26 22.44 19.86 18.35"/></svg>